<svg width="24" height="24" viewBox="0 0 24 24" fill="none" xmlns="http://www.w3.org/2000/svg">
<g clip-path="url(#clip0_1_6)">
<circle cx="12" cy="12" r="12" fill="#020A21"/>
<path d="M5.35234 19.5952C4.44014 19.5952 3.66097 19.2683 3.01482 18.6146C2.36868 17.9609 2.03041 17.1703 2 16.2429C2 16.106 2.0076 15.9692 2.02281 15.8324C2.03801 15.6956 2.06081 15.5587 2.09122 15.4219L4.00684 7.75941C4.21969 6.93843 4.65298 6.27328 5.30673 5.76397C5.96047 5.25466 6.70544 5 7.54162 5H16.4356C17.2718 5 18.0167 5.25466 18.6705 5.76397C19.3242 6.27328 19.7575 6.93843 19.9704 7.75941L21.886 15.4219C21.9164 15.5587 21.943 15.6994 21.9658 15.8438C21.9886 15.9882 22 16.1288 22 16.2657C22 17.1931 21.6693 17.9799 21.008 18.626C20.3466 19.2721 19.5523 19.5952 18.6249 19.5952C17.9863 19.5952 17.3934 19.428 16.8461 19.0935C16.2987 18.759 15.8883 18.3029 15.6146 17.7252L14.9761 16.4025C14.9 16.2505 14.786 16.1364 14.634 16.0604C14.4819 15.9844 14.3223 15.9464 14.1551 15.9464H9.82212C9.65488 15.9464 9.49525 15.9844 9.34322 16.0604C9.19118 16.1364 9.07716 16.2505 9.00114 16.4025L8.3626 17.7252C8.08894 18.3029 7.67845 18.759 7.13113 19.0935C6.58381 19.428 5.99088 19.5952 5.35234 19.5952ZM5.42075 17.7708C5.70962 17.7708 5.97187 17.6948 6.20753 17.5428C6.44318 17.3907 6.62182 17.1855 6.74344 16.927L7.38198 15.6271C7.61003 15.1558 7.94451 14.7872 8.3854 14.5211C8.8263 14.255 9.30521 14.122 9.82212 14.122H14.1551C14.672 14.122 15.1509 14.2588 15.5918 14.5325C16.0327 14.8062 16.3748 15.171 16.618 15.6271L17.2566 16.927C17.3782 17.1855 17.5568 17.3907 17.7925 17.5428C18.0281 17.6948 18.2904 17.7708 18.5792 17.7708C19.0049 17.7708 19.3698 17.6302 19.6739 17.3489C19.978 17.0677 20.1376 16.7142 20.1528 16.2885C20.1528 16.3037 20.1376 16.1593 20.1072 15.8552L18.1916 8.21551C18.0851 7.80502 17.8723 7.47054 17.553 7.21209C17.2338 6.95363 16.8613 6.8244 16.4356 6.8244H7.54162C7.11593 6.8244 6.73964 6.95363 6.41277 7.21209C6.0859 7.47054 5.87685 7.80502 5.78563 8.21551L3.87001 15.8552C3.8396 15.9464 3.8244 16.0832 3.8244 16.2657C3.8244 16.6914 3.98024 17.0487 4.2919 17.3375C4.60357 17.6264 4.97986 17.7708 5.42075 17.7708ZM13.3569 11.3854C13.6154 11.3854 13.832 11.298 14.0068 11.1231C14.1817 10.9483 14.2691 10.7317 14.2691 10.4732C14.2691 10.2147 14.1817 9.9981 14.0068 9.82326C13.832 9.64842 13.6154 9.561 13.3569 9.561C13.0984 9.561 12.8818 9.64842 12.707 9.82326C12.5321 9.9981 12.4447 10.2147 12.4447 10.4732C12.4447 10.7317 12.5321 10.9483 12.707 11.1231C12.8818 11.298 13.0984 11.3854 13.3569 11.3854ZM15.1813 9.561C15.4398 9.561 15.6564 9.47358 15.8312 9.29875C16.0061 9.12391 16.0935 8.90726 16.0935 8.6488C16.0935 8.39035 16.0061 8.1737 15.8312 7.99886C15.6564 7.82402 15.4398 7.7366 15.1813 7.7366C14.9228 7.7366 14.7062 7.82402 14.5314 7.99886C14.3565 8.1737 14.2691 8.39035 14.2691 8.6488C14.2691 8.90726 14.3565 9.12391 14.5314 9.29875C14.7062 9.47358 14.9228 9.561 15.1813 9.561ZM15.1813 13.2098C15.4398 13.2098 15.6564 13.1224 15.8312 12.9475C16.0061 12.7727 16.0935 12.5561 16.0935 12.2976C16.0935 12.0391 16.0061 11.8225 15.8312 11.6477C15.6564 11.4728 15.4398 11.3854 15.1813 11.3854C14.9228 11.3854 14.7062 11.4728 14.5314 11.6477C14.3565 11.8225 14.2691 12.0391 14.2691 12.2976C14.2691 12.5561 14.3565 12.7727 14.5314 12.9475C14.7062 13.1224 14.9228 13.2098 15.1813 13.2098ZM17.0057 11.3854C17.2642 11.3854 17.4808 11.298 17.6556 11.1231C17.8305 10.9483 17.9179 10.7317 17.9179 10.4732C17.9179 10.2147 17.8305 9.9981 17.6556 9.82326C17.4808 9.64842 17.2642 9.561 17.0057 9.561C16.7472 9.561 16.5306 9.64842 16.3558 9.82326C16.1809 9.9981 16.0935 10.2147 16.0935 10.4732C16.0935 10.7317 16.1809 10.9483 16.3558 11.1231C16.5306 11.298 16.7472 11.3854 17.0057 11.3854ZM8.79589 12.7537C8.99354 12.7537 9.15697 12.6891 9.2862 12.5599C9.41543 12.4306 9.48005 12.2672 9.48005 12.0696V11.1574H10.3922C10.5899 11.1574 10.7533 11.0927 10.8826 10.9635C11.0118 10.8343 11.0764 10.6708 11.0764 10.4732C11.0764 10.2756 11.0118 10.1121 10.8826 9.9829C10.7533 9.85367 10.5899 9.78905 10.3922 9.78905H9.48005V8.87685C9.48005 8.67921 9.41543 8.51577 9.2862 8.38654C9.15697 8.25732 8.99354 8.1927 8.79589 8.1927C8.59825 8.1927 8.43482 8.25732 8.30559 8.38654C8.17636 8.51577 8.11174 8.67921 8.11174 8.87685V9.78905H7.19954C7.0019 9.78905 6.83846 9.85367 6.70924 9.9829C6.58001 10.1121 6.51539 10.2756 6.51539 10.4732C6.51539 10.6708 6.58001 10.8343 6.70924 10.9635C6.83846 11.0927 7.0019 11.1574 7.19954 11.1574H8.11174V12.0696C8.11174 12.2672 8.17636 12.4306 8.30559 12.5599C8.43482 12.6891 8.59825 12.7537 8.79589 12.7537Z" fill="#1B77FF"/>
</g>
<defs>
<clipPath id="clip0_1_6">
<rect width="24" height="24" fill="white"/>
</clipPath>
</defs>
</svg>
