<svg width="53" height="17" viewBox="0 0 53 17" fill="none" xmlns="http://www.w3.org/2000/svg">
<path d="M3.68757 16.0547C2.68415 16.0547 1.82706 15.6952 1.11631 14.9761C0.405549 14.2569 0.0334474 13.3873 0 12.3672C0 12.2166 0.00836184 12.0661 0.0250855 11.9156C0.0418092 11.7651 0.0668947 11.6146 0.100342 11.4641L2.20753 3.03535C2.44166 2.13227 2.91828 1.40061 3.6374 0.840365C4.35652 0.280122 5.17598 0 6.09578 0H15.8791C16.7989 0 17.6184 0.280122 18.3375 0.840365C19.0566 1.40061 19.5333 2.13227 19.7674 3.03535L21.8746 11.4641C21.908 11.6146 21.9373 11.7693 21.9624 11.9282C21.9875 12.087 22 12.2417 22 12.3922C22 13.4124 21.6363 14.2778 20.9088 14.9886C20.1813 15.6994 19.3075 16.0547 18.2873 16.0547C17.5849 16.0547 16.9327 15.8708 16.3307 15.5028C15.7286 15.1349 15.2771 14.6332 14.9761 13.9977L14.2737 12.5428C14.19 12.3755 14.0646 12.2501 13.8974 12.1665C13.7301 12.0829 13.5545 12.041 13.3706 12.041H8.60433C8.42037 12.041 8.24477 12.0829 8.07754 12.1665C7.9103 12.2501 7.78487 12.3755 7.70125 12.5428L6.99886 13.9977C6.69783 14.6332 6.24629 15.1349 5.64424 15.5028C5.04219 15.8708 4.38997 16.0547 3.68757 16.0547ZM3.76283 14.0479C4.08058 14.0479 4.36906 13.9643 4.62828 13.797C4.8875 13.6298 5.084 13.404 5.21779 13.1197L5.92018 11.6899C6.17104 11.1714 6.53896 10.7659 7.02395 10.4732C7.50893 10.1805 8.03573 10.0342 8.60433 10.0342H13.3706C13.9392 10.0342 14.466 10.1847 14.951 10.4857C15.436 10.7868 15.8122 11.1881 16.0798 11.6899L16.7822 13.1197C16.916 13.404 17.1125 13.6298 17.3717 13.797C17.6309 13.9643 17.9194 14.0479 18.2372 14.0479C18.7054 14.0479 19.1068 13.8932 19.4413 13.5838C19.7758 13.2744 19.9513 12.8856 19.9681 12.4173C19.9681 12.4341 19.9513 12.2752 19.9179 11.9407L17.8107 3.53706C17.6937 3.08552 17.4595 2.7176 17.1083 2.4333C16.7571 2.14899 16.3474 2.00684 15.8791 2.00684H6.09578C5.62752 2.00684 5.21361 2.14899 4.85405 2.4333C4.49449 2.7176 4.26454 3.08552 4.1642 3.53706L2.05701 11.9407C2.02357 12.041 2.00684 12.1916 2.00684 12.3922C2.00684 12.8605 2.17826 13.2535 2.52109 13.5713C2.86393 13.889 3.27784 14.0479 3.76283 14.0479ZM12.4926 7.02394C12.7769 7.02394 13.0152 6.92778 13.2075 6.73546C13.3998 6.54314 13.496 6.30483 13.496 6.02052C13.496 5.73622 13.3998 5.49791 13.2075 5.30559C13.0152 5.11326 12.7769 5.0171 12.4926 5.0171C12.2083 5.0171 11.97 5.11326 11.7777 5.30559C11.5853 5.49791 11.4892 5.73622 11.4892 6.02052C11.4892 6.30483 11.5853 6.54314 11.7777 6.73546C11.97 6.92778 12.2083 7.02394 12.4926 7.02394ZM14.4994 5.0171C14.7837 5.0171 15.022 4.92094 15.2144 4.72862C15.4067 4.5363 15.5029 4.29799 15.5029 4.01368C15.5029 3.72938 15.4067 3.49107 15.2144 3.29875C15.022 3.10642 14.7837 3.01026 14.4994 3.01026C14.2151 3.01026 13.9768 3.10642 13.7845 3.29875C13.5922 3.49107 13.496 3.72938 13.496 4.01368C13.496 4.29799 13.5922 4.5363 13.7845 4.72862C13.9768 4.92094 14.2151 5.0171 14.4994 5.0171ZM14.4994 9.03079C14.7837 9.03079 15.022 8.93463 15.2144 8.7423C15.4067 8.54998 15.5029 8.31167 15.5029 8.02737C15.5029 7.74306 15.4067 7.50475 15.2144 7.31243C15.022 7.12011 14.7837 7.02394 14.4994 7.02394C14.2151 7.02394 13.9768 7.12011 13.7845 7.31243C13.5922 7.50475 13.496 7.74306 13.496 8.02737C13.496 8.31167 13.5922 8.54998 13.7845 8.7423C13.9768 8.93463 14.2151 9.03079 14.4994 9.03079ZM16.5063 7.02394C16.7906 7.02394 17.0289 6.92778 17.2212 6.73546C17.4135 6.54314 17.5097 6.30483 17.5097 6.02052C17.5097 5.73622 17.4135 5.49791 17.2212 5.30559C17.0289 5.11326 16.7906 5.0171 16.5063 5.0171C16.222 5.0171 15.9837 5.11326 15.7913 5.30559C15.599 5.49791 15.5029 5.73622 15.5029 6.02052C15.5029 6.30483 15.599 6.54314 15.7913 6.73546C15.9837 6.92778 16.222 7.02394 16.5063 7.02394ZM7.47548 8.52908C7.69289 8.52908 7.87267 8.458 8.01482 8.31585C8.15697 8.1737 8.22805 7.99392 8.22805 7.77651V6.77309H9.23147C9.44888 6.77309 9.62866 6.70201 9.77081 6.55986C9.91296 6.41771 9.98404 6.23793 9.98404 6.02052C9.98404 5.80312 9.91296 5.62334 9.77081 5.48119C9.62866 5.33903 9.44888 5.26796 9.23147 5.26796H8.22805V4.26454C8.22805 4.04713 8.15697 3.86735 8.01482 3.7252C7.87267 3.58305 7.69289 3.51197 7.47548 3.51197C7.25808 3.51197 7.0783 3.58305 6.93615 3.7252C6.79399 3.86735 6.72292 4.04713 6.72292 4.26454V5.26796H5.7195C5.50209 5.26796 5.32231 5.33903 5.18016 5.48119C5.03801 5.62334 4.96693 5.80312 4.96693 6.02052C4.96693 6.23793 5.03801 6.41771 5.18016 6.55986C5.32231 6.70201 5.50209 6.77309 5.7195 6.77309H6.72292V7.77651C6.72292 7.99392 6.79399 8.1737 6.93615 8.31585C7.0783 8.458 7.25808 8.52908 7.47548 8.52908Z" fill="#1B77FF"/>
<path d="M25.5 0.5H26.25V1.25H25.5V0.5ZM24.75 0.5H25.5V1.25H24.75V0.5ZM24.75 1.25H25.5V2H24.75V1.25ZM25.5 1.25H26.25V2H25.5V1.25ZM26.25 1.25H27V2H26.25V1.25ZM26.25 0.5H27V1.25H26.25V0.5ZM27 0.5H27.75V1.25H27V0.5ZM27.75 0.5H28.5V1.25H27.75V0.5ZM27.75 1.25H28.5V2H27.75V1.25ZM27 1.25H27.75V2H27V1.25ZM27.75 2H28.5V2.75H27.75V2ZM28.5 1.25H29.25V2H28.5V1.25ZM28.5 2H29.25V2.75H28.5V2ZM28.5 5.75H29.25V6.5H28.5V5.75ZM28.5 6.5H29.25V7.25H28.5V6.5ZM27.75 6.5H28.5V7.25H27.75V6.5ZM27.75 5.75H28.5V6.5H27.75V5.75ZM27 6.5H27.75V7.25H27V6.5ZM27.75 7.25H28.5V8H27.75V7.25ZM27 7.25H27.75V8H27V7.25ZM26.25 7.25H27V8H26.25V7.25ZM26.25 6.5H27V7.25H26.25V6.5ZM25.5 7.25H26.25V8H25.5V7.25ZM24.75 7.25H25.5V8H24.75V7.25ZM24.75 6.5H25.5V7.25H24.75V6.5ZM25.5 6.5H26.25V7.25H25.5V6.5ZM25.5 5.75H26.25V6.5H25.5V5.75ZM24.75 5.75H25.5V6.5H24.75V5.75ZM24 6.5H24.75V7.25H24V6.5ZM24 5.75H24.75V6.5H24V5.75ZM24 5H24.75V5.75H24V5ZM24 4.25H24.75V5H24V4.25ZM24 3.5H24.75V4.25H24V3.5ZM24 2.75H24.75V3.5H24V2.75ZM24 2H24.75V2.75H24V2ZM24.75 2H25.5V2.75H24.75V2ZM24 1.25H24.75V2H24V1.25ZM25.5 2H26.25V2.75H25.5V2ZM24.75 2.75H25.5V3.5H24.75V2.75ZM24.75 3.5H25.5V4.25H24.75V3.5ZM24.75 4.25H25.5V5H24.75V4.25ZM24.75 5H25.5V5.75H24.75V5ZM28.5 5H29.25V5.75H28.5V5ZM27.75 5H28.5V5.75H27.75V5ZM27.75 4.25H28.5V5H27.75V4.25ZM28.5 4.25H29.25V5H28.5V4.25ZM28.5 3.5H29.25V4.25H28.5V3.5ZM27.75 3.5H28.5V4.25H27.75V3.5ZM27 3.5H27.75V4.25H27V3.5ZM26.25 3.5H27V4.25H26.25V3.5ZM26.25 4.25H27V5H26.25V4.25ZM27 4.25H27.75V5H27V4.25ZM26.0893 15.3036H26.7857V16H26.0893V15.3036ZM26.0893 14.6071H26.7857V15.3036H26.0893V14.6071ZM26.0893 13.9107H26.7857V14.6071H26.0893V13.9107ZM25.3929 14.6071H26.0893V15.3036H25.3929V14.6071ZM25.3929 13.9107H26.0893V14.6071H25.3929V13.9107ZM25.3929 13.2143H26.0893V13.9107H25.3929V13.2143ZM24.6964 13.9107H25.3929V14.6071H24.6964V13.9107ZM24.6964 13.2143H25.3929V13.9107H24.6964V13.2143ZM26.7857 13.9107H27.4821V14.6071H26.7857V13.9107ZM26.7857 14.6071H27.4821V15.3036H26.7857V14.6071ZM26.7857 13.2143H27.4821V13.9107H26.7857V13.2143ZM27.4821 13.2143H28.1786V13.9107H27.4821V13.2143ZM27.4821 13.9107H28.1786V14.6071H27.4821V13.9107ZM28.1786 13.2143H28.875V13.9107H28.1786V13.2143ZM24 13.2143H24.6964V13.9107H24V13.2143ZM27.4821 9.03571H28.1786V9.73214H27.4821V9.03571ZM28.1786 9.03571H28.875V9.73214H28.1786V9.03571ZM28.1786 9.73214H28.875V10.4286H28.1786V9.73214ZM28.1786 10.4286H28.875V11.125H28.1786V10.4286ZM28.1786 11.125H28.875V11.8214H28.1786V11.125ZM28.1786 11.8214H28.875V12.5179H28.1786V11.8214ZM27.4821 11.8214H28.1786V12.5179H27.4821V11.8214ZM27.4821 12.5179H28.1786V13.2143H27.4821V12.5179ZM27.4821 11.125H28.1786V11.8214H27.4821V11.125ZM27.4821 10.4286H28.1786V11.125H27.4821V10.4286ZM27.4821 9.73214H28.1786V10.4286H27.4821V9.73214ZM28.1786 12.5179H28.875V13.2143H28.1786V12.5179ZM24.6964 12.5179H25.3929V13.2143H24.6964V12.5179ZM24 12.5179H24.6964V13.2143H24V12.5179ZM24 11.8214H24.6964V12.5179H24V11.8214ZM24.6964 11.8214H25.3929V12.5179H24.6964V11.8214ZM24.6964 11.125H25.3929V11.8214H24.6964V11.125ZM24 11.125H24.6964V11.8214H24V11.125ZM24 10.4286H24.6964V11.125H24V10.4286ZM24.6964 10.4286H25.3929V11.125H24.6964V10.4286ZM24 9.03571H24.6964V9.73214H24V9.03571ZM24.6964 9.03571H25.3929V9.73214H24.6964V9.03571ZM24.6964 9.73214H25.3929V10.4286H24.6964V9.73214ZM24 9.73214H24.6964V10.4286H24V9.73214Z" fill="#1B77FF"/>
<path d="M33.8591 8H33.2162V7.35714H33.8591V8ZM33.8591 7.35714H33.2162V6.71429H33.8591V7.35714ZM33.2162 7.35714H32.5734V6.71429H33.2162V7.35714ZM32.5734 8H31.9305V7.35714H32.5734V8ZM31.9305 8H31.2877V7.35714H31.9305V8ZM31.2877 8H30.6448V7.35714H31.2877V8ZM31.2877 7.35714H30.6448V6.71429H31.2877V7.35714ZM31.9305 7.35714H31.2877V6.71429H31.9305V7.35714ZM30.6448 7.35714H30.002V6.71429H30.6448V7.35714ZM30.6448 6.71429H30.002V6.07143H30.6448V6.71429ZM30.6448 4.14286H30.002V3.5H30.6448V4.14286ZM31.2877 4.14286H30.6448V3.5H31.2877V4.14286ZM31.2877 6.71429H30.6448V6.07143H31.2877V6.71429ZM31.9305 4.14286H31.2877V3.5H31.9305V4.14286ZM31.2877 3.5H30.6448V2.85714H31.2877V3.5ZM31.9305 3.5H31.2877V2.85714H31.9305V3.5ZM32.5734 3.5H31.9305V2.85714H32.5734V3.5ZM33.2162 3.5H32.5734V2.85714H33.2162V3.5ZM33.8591 3.5H33.2162V2.85714H33.8591V3.5ZM33.8591 4.14286H33.2162V3.5H33.8591V4.14286ZM33.2162 4.14286H32.5734V3.5H33.2162V4.14286ZM33.8591 4.78571H33.2162V4.14286H33.8591V4.78571ZM34.502 4.14286H33.8591V3.5H34.502V4.14286ZM34.502 4.78571H33.8591V4.14286H34.502V4.78571ZM34.502 5.42857H33.8591V4.78571H34.502V5.42857ZM34.502 6.07143H33.8591V5.42857H34.502V6.07143ZM34.502 6.71429H33.8591V6.07143H34.502V6.71429ZM34.502 7.35714H33.8591V6.71429H34.502V7.35714ZM33.8591 6.71429H33.2162V6.07143H33.8591V6.71429ZM33.8591 6.07143H33.2162V5.42857H33.8591V6.07143ZM33.8591 5.42857H33.2162V4.78571H33.8591V5.42857ZM32.5734 4.14286H31.9305V3.5H32.5734V4.14286ZM32.5734 7.35714H31.9305V6.71429H32.5734V7.35714ZM33.8591 7.35714H34.502V8H33.8591V7.35714ZM32.5734 4.78571H33.2162V5.42857H32.5734V4.78571ZM31.9305 4.78571H32.5734V5.42857H31.9305V4.78571ZM31.2877 4.78571H31.9305V5.42857H31.2877V4.78571ZM30.6448 4.78571H31.2877V5.42857H30.6448V4.78571ZM30.002 5.42857H30.6448V6.07143H30.002V5.42857ZM30.6448 5.42857H31.2877V6.07143H30.6448V5.42857ZM32.5734 5.42857H33.2162V6.07143H32.5734V5.42857ZM31.9305 5.42857H32.5734V6.07143H31.9305V5.42857ZM31.2877 5.42857H31.9305V6.07143H31.2877V5.42857ZM35.1465 3.5H35.7893V4.14286H35.1465V3.5ZM35.1465 2.85714H35.7893V3.5H35.1465V2.85714ZM35.7893 2.85714H36.4322V3.5H35.7893V2.85714ZM35.7893 3.5H36.4322V4.14286H35.7893V3.5ZM35.7893 4.14286H36.4322V4.78571H35.7893V4.14286ZM35.7893 4.78571H36.4322V5.42857H35.7893V4.78571ZM35.7893 5.42857H36.4322V6.07143H35.7893V5.42857ZM35.1465 5.42857H35.7893V6.07143H35.1465V5.42857ZM35.1465 4.78571H35.7893V5.42857H35.1465V4.78571ZM35.1465 4.14286H35.7893V4.78571H35.1465V4.14286ZM35.1465 6.07143H35.7893V6.71429H35.1465V6.07143ZM35.7893 6.07143H36.4322V6.71429H35.7893V6.07143ZM35.7893 6.71429H36.4322V7.35714H35.7893V6.71429ZM35.7893 7.35714H36.4322V8H35.7893V7.35714ZM35.1465 7.35714H35.7893V8H35.1465V7.35714ZM35.1465 6.71429H35.7893V7.35714H35.1465V6.71429ZM37.7179 7.35714H38.3608V8H37.7179V7.35714ZM38.3608 7.35714H39.0036V8H38.3608V7.35714ZM38.3608 6.71429H39.0036V7.35714H38.3608V6.71429ZM38.3608 6.07143H39.0036V6.71429H38.3608V6.07143ZM38.3608 5.42857H39.0036V6.07143H38.3608V5.42857ZM38.3608 4.78571H39.0036V5.42857H38.3608V4.78571ZM38.3608 4.14286H39.0036V4.78571H38.3608V4.14286ZM38.3608 3.5H39.0036V4.14286H38.3608V3.5ZM37.7179 4.78571H38.3608V5.42857H37.7179V4.78571ZM37.7179 5.42857H38.3608V6.07143H37.7179V5.42857ZM37.7179 6.07143H38.3608V6.71429H37.7179V6.07143ZM37.7179 6.71429H38.3608V7.35714H37.7179V6.71429ZM37.7179 4.14286H38.3608V4.78571H37.7179V4.14286ZM36.4322 3.5H37.0751V4.14286H36.4322V3.5ZM37.0751 3.5H37.7179V4.14286H37.0751V3.5ZM37.7179 2.85714H38.3608V3.5H37.7179V2.85714ZM37.7179 3.5H38.3608V4.14286H37.7179V3.5ZM37.0751 2.85714H37.7179V3.5H37.0751V2.85714ZM40.2893 7.35714H40.9322V8H40.2893V7.35714ZM40.9322 7.35714H41.5751V8H40.9322V7.35714ZM40.9322 6.71429H41.5751V7.35714H40.9322V6.71429ZM40.9322 6.07143H41.5751V6.71429H40.9322V6.07143ZM40.9322 5.42857H41.5751V6.07143H40.9322V5.42857ZM40.9322 4.78571H41.5751V5.42857H40.9322V4.78571ZM40.9322 4.14286H41.5751V4.78571H40.9322V4.14286ZM40.9322 3.5H41.5751V4.14286H40.9322V3.5ZM40.2893 4.78571H40.9322V5.42857H40.2893V4.78571ZM40.2893 5.42857H40.9322V6.07143H40.2893V5.42857ZM40.2893 6.07143H40.9322V6.71429H40.2893V6.07143ZM40.2893 6.71429H40.9322V7.35714H40.2893V6.71429ZM40.2893 4.14286H40.9322V4.78571H40.2893V4.14286ZM39.0036 3.5H39.6465V4.14286H39.0036V3.5ZM39.6465 3.5H40.2893V4.14286H39.6465V3.5ZM40.2893 2.85714H40.9322V3.5H40.2893V2.85714ZM40.2893 3.5H40.9322V4.14286H40.2893V3.5ZM39.6465 2.85714H40.2893V3.5H39.6465V2.85714ZM43.4986 2.85714H44.1415V3.5H43.4986V2.85714ZM42.8557 2.85714H43.4986V3.5H42.8557V2.85714ZM42.8557 3.5H43.4986V4.14286H42.8557V3.5ZM43.4986 3.5H44.1415V4.14286H43.4986V3.5ZM44.1415 2.85714H44.7843V3.5H44.1415V2.85714ZM44.7843 2.85714H45.4272V3.5H44.7843V2.85714ZM45.4272 2.85714H46.07V3.5H45.4272V2.85714ZM45.4272 3.5H46.07V4.14286H45.4272V3.5ZM44.7843 3.5H45.4272V4.14286H44.7843V3.5ZM46.07 3.5H46.7129V4.14286H46.07V3.5ZM46.07 4.14286H46.7129V4.78571H46.07V4.14286ZM46.07 6.71429H46.7129V7.35714H46.07V6.71429ZM45.4272 6.71429H46.07V7.35714H45.4272V6.71429ZM45.4272 4.14286H46.07V4.78571H45.4272V4.14286ZM44.7843 6.71429H45.4272V7.35714H44.7843V6.71429ZM45.4272 7.35714H46.07V8H45.4272V7.35714ZM44.7843 7.35714H45.4272V8H44.7843V7.35714ZM44.1415 7.35714H44.7843V8H44.1415V7.35714ZM43.4986 7.35714H44.1415V8H43.4986V7.35714ZM42.8557 7.35714H43.4986V8H42.8557V7.35714ZM42.8557 6.71429H43.4986V7.35714H42.8557V6.71429ZM43.4986 6.71429H44.1415V7.35714H43.4986V6.71429ZM42.8557 6.07143H43.4986V6.71429H42.8557V6.07143ZM42.2129 6.71429H42.8557V7.35714H42.2129V6.71429ZM42.2129 6.07143H42.8557V6.71429H42.2129V6.07143ZM42.2129 5.42857H42.8557V6.07143H42.2129V5.42857ZM42.2129 4.78571H42.8557V5.42857H42.2129V4.78571ZM42.2129 4.14286H42.8557V4.78571H42.2129V4.14286ZM42.2129 3.5H42.8557V4.14286H42.2129V3.5ZM42.8557 4.14286H43.4986V4.78571H42.8557V4.14286ZM42.8557 4.78571H43.4986V5.42857H42.8557V4.78571ZM42.8557 5.42857H43.4986V6.07143H42.8557V5.42857ZM44.1415 6.71429H44.7843V7.35714H44.1415V6.71429ZM44.1415 3.5H44.7843V4.14286H44.1415V3.5ZM45.4272 4.78571H46.07V5.42857H45.4272V4.78571ZM46.07 4.78571H46.7129V5.42857H46.07V4.78571ZM43.4986 5.42857H44.1415V6.07143H43.4986V5.42857ZM44.1415 5.42857H44.7843V6.07143H44.1415V5.42857ZM44.7843 5.42857H45.4272V6.07143H44.7843V5.42857ZM45.4272 5.42857H46.07V6.07143H45.4272V5.42857ZM46.07 5.42857H46.7129V6.07143H46.07V5.42857ZM44.7843 4.78571H45.4272V5.42857H44.7843V4.78571ZM44.1415 4.78571H44.7843V5.42857H44.1415V4.78571ZM43.4986 4.78571H44.1415V5.42857H43.4986V4.78571ZM47.3574 3.5H48.0003V4.14286H47.3574V3.5ZM48.0003 4.14286H48.6431V4.78571H48.0003V4.14286ZM47.3574 4.14286H48.0003V4.78571H47.3574V4.14286ZM47.3574 4.78571H48.0003V5.42857H47.3574V4.78571ZM48.0003 4.78571H48.6431V5.42857H48.0003V4.78571ZM48.0003 5.42857H48.6431V6.07143H48.0003V5.42857ZM48.6431 5.42857H49.286V6.07143H48.6431V5.42857ZM49.286 5.42857H49.9289V6.07143H49.286V5.42857ZM49.9289 4.78571H50.5717V5.42857H49.9289V4.78571ZM49.286 4.78571H49.9289V5.42857H49.286V4.78571ZM48.6431 4.78571H49.286V5.42857H48.6431V4.78571ZM49.9289 5.42857H50.5717V6.07143H49.9289V5.42857ZM50.5717 5.42857H51.2146V6.07143H50.5717V5.42857ZM50.5717 6.07143H51.2146V6.71429H50.5717V6.07143ZM49.9289 6.07143H50.5717V6.71429H49.9289V6.07143ZM49.9289 6.71429H50.5717V7.35714H49.9289V6.71429ZM50.5717 6.71429H51.2146V7.35714H50.5717V6.71429ZM49.9289 7.35714H50.5717V8H49.9289V7.35714ZM49.286 6.71429H49.9289V7.35714H49.286V6.71429ZM48.6431 6.71429H49.286V7.35714H48.6431V6.71429ZM48.0003 6.71429H48.6431V7.35714H48.0003V6.71429ZM47.3574 6.71429H48.0003V7.35714H47.3574V6.71429ZM48.0003 7.35714H48.6431V8H48.0003V7.35714ZM48.6431 7.35714H49.286V8H48.6431V7.35714ZM49.286 7.35714H49.9289V8H49.286V7.35714ZM50.5717 3.5H51.2146V4.14286H50.5717V3.5ZM49.9289 3.5H50.5717V4.14286H49.9289V3.5ZM49.9289 2.85714H50.5717V3.5H49.9289V2.85714ZM49.286 2.85714H49.9289V3.5H49.286V2.85714ZM48.6431 2.85714H49.286V3.5H48.6431V2.85714ZM48.0003 2.85714H48.6431V3.5H48.0003V2.85714ZM48.0003 3.5H48.6431V4.14286H48.0003V3.5ZM48.6431 3.5H49.286V4.14286H48.6431V3.5ZM49.286 3.5H49.9289V4.14286H49.286V3.5ZM29.5732 9.57143H30.859V10.8571H29.5732V9.57143ZM29.5732 11.5H30.859V16H29.5732V11.5ZM32.7926 10.8571H33.4354V11.5H32.7926V10.8571ZM32.1497 10.8571H32.7926V11.5H32.1497V10.8571ZM32.1497 11.5H32.7926V12.1429H32.1497V11.5ZM32.7926 11.5H33.4354V12.1429H32.7926V11.5ZM33.4354 10.8571H34.0783V11.5H33.4354V10.8571ZM34.0783 10.8571H34.7211V11.5H34.0783V10.8571ZM34.7211 10.8571H35.364V11.5H34.7211V10.8571ZM34.7211 11.5H35.364V12.1429H34.7211V11.5ZM34.0783 11.5H34.7211V12.1429H34.0783V11.5ZM35.364 11.5H36.0068V12.1429H35.364V11.5ZM35.364 12.1429H36.0068V12.7857H35.364V12.1429ZM35.364 14.7143H36.0068V15.3571H35.364V14.7143ZM34.7211 14.7143H35.364V15.3571H34.7211V14.7143ZM34.7211 12.1429H35.364V12.7857H34.7211V12.1429ZM34.0783 14.7143H34.7211V15.3571H34.0783V14.7143ZM34.7211 15.3571H35.364V16H34.7211V15.3571ZM34.0783 15.3571H34.7211V16H34.0783V15.3571ZM33.4354 15.3571H34.0783V16H33.4354V15.3571ZM32.7926 15.3571H33.4354V16H32.7926V15.3571ZM32.1497 15.3571H32.7926V16H32.1497V15.3571ZM32.1497 14.7143H32.7926V15.3571H32.1497V14.7143ZM32.7926 14.7143H33.4354V15.3571H32.7926V14.7143ZM32.1497 14.0714H32.7926V14.7143H32.1497V14.0714ZM31.5068 14.7143H32.1497V15.3571H31.5068V14.7143ZM31.5068 14.0714H32.1497V14.7143H31.5068V14.0714ZM31.5068 13.4286H32.1497V14.0714H31.5068V13.4286ZM31.5068 12.7857H32.1497V13.4286H31.5068V12.7857ZM31.5068 12.1429H32.1497V12.7857H31.5068V12.1429ZM31.5068 11.5H32.1497V12.1429H31.5068V11.5ZM32.1497 12.1429H32.7926V12.7857H32.1497V12.1429ZM32.1497 12.7857H32.7926V13.4286H32.1497V12.7857ZM32.1497 13.4286H32.7926V14.0714H32.1497V13.4286ZM33.4354 14.7143H34.0783V15.3571H33.4354V14.7143ZM33.4354 11.5H34.0783V12.1429H33.4354V11.5ZM34.7211 12.7857H35.364V13.4286H34.7211V12.7857ZM35.364 12.7857H36.0068V13.4286H35.364V12.7857ZM32.7926 13.4286H33.4354V14.0714H32.7926V13.4286ZM33.4354 13.4286H34.0783V14.0714H33.4354V13.4286ZM34.0783 13.4286H34.7211V14.0714H34.0783V13.4286ZM34.7211 13.4286H35.364V14.0714H34.7211V13.4286ZM35.364 13.4286H36.0068V14.0714H35.364V13.4286ZM34.0783 12.7857H34.7211V13.4286H34.0783V12.7857ZM33.4354 12.7857H34.0783V13.4286H33.4354V12.7857ZM32.7926 12.7857H33.4354V13.4286H32.7926V12.7857ZM36.6514 10.8571H37.2942V11.5H36.6514V10.8571ZM36.6514 11.5H37.2942V12.1429H36.6514V11.5ZM36.6514 12.1429H37.2942V12.7857H36.6514V12.1429ZM36.6514 12.7857H37.2942V13.4286H36.6514V12.7857ZM36.6514 13.4286H37.2942V14.0714H36.6514V13.4286ZM36.6514 14.0714H37.2942V14.7143H36.6514V14.0714ZM37.2942 14.0714H37.9371V14.7143H37.2942V14.0714ZM37.2942 14.7143H37.9371V15.3571H37.2942V14.7143ZM37.9371 14.7143H38.5799V15.3571H37.9371V14.7143ZM37.9371 15.3571H38.5799V16H37.9371V15.3571ZM38.5799 14.7143H39.2228V15.3571H38.5799V14.7143ZM39.2228 14.0714H39.8657V14.7143H39.2228V14.0714ZM39.8657 12.1429H40.5085V12.7857H39.8657V12.1429ZM39.2228 10.8571H39.8657V11.5H39.2228V10.8571ZM39.8657 10.8571H40.5085V11.5H39.8657V10.8571ZM39.8657 11.5H40.5085V12.1429H39.8657V11.5ZM39.8657 12.7857H40.5085V13.4286H39.8657V12.7857ZM39.8657 13.4286H40.5085V14.0714H39.8657V13.4286ZM39.2228 13.4286H39.8657V14.0714H39.2228V13.4286ZM39.2228 12.7857H39.8657V13.4286H39.2228V12.7857ZM39.2228 12.1429H39.8657V12.7857H39.2228V12.1429ZM39.2228 11.5H39.8657V12.1429H39.2228V11.5ZM39.8657 14.0714H40.5085V14.7143H39.8657V14.0714ZM41.1514 14.7143H41.7942V15.3571H41.1514V14.7143ZM41.1514 15.3571H41.7942V16H41.1514V15.3571ZM41.7942 14.7143H42.4371V15.3571H41.7942V14.7143ZM41.7942 14.0714H42.4371V14.7143H41.7942V14.0714ZM42.4371 14.0714H43.0799V14.7143H42.4371V14.0714ZM42.4371 13.4286H43.0799V14.0714H42.4371V13.4286ZM42.4371 12.7857H43.0799V13.4286H42.4371V12.7857ZM42.4371 12.1429H43.0799V12.7857H42.4371V12.1429ZM42.4371 11.5H43.0799V12.1429H42.4371V11.5ZM42.4371 10.8571H43.0799V11.5H42.4371V10.8571ZM37.2942 11.5H37.9371V12.1429H37.2942V11.5ZM37.2942 12.1429H37.9371V12.7857H37.2942V12.1429ZM37.2942 12.7857H37.9371V13.4286H37.2942V12.7857ZM37.2942 13.4286H37.9371V14.0714H37.2942V13.4286ZM37.2942 10.8571H37.9371V11.5H37.2942V10.8571ZM41.7942 10.8571H42.4371V11.5H41.7942V10.8571ZM41.7942 11.5H42.4371V12.1429H41.7942V11.5ZM41.7942 12.1429H42.4371V12.7857H41.7942V12.1429ZM41.7942 12.7857H42.4371V13.4286H41.7942V12.7857ZM41.7942 13.4286H42.4371V14.0714H41.7942V13.4286ZM38.5799 15.3571H39.2228V16H38.5799V15.3571ZM39.2228 14.7143H39.8657V15.3571H39.2228V14.7143ZM39.8657 14.7143H40.5085V15.3571H39.8657V14.7143ZM40.5085 14.7143H41.1514V15.3571H40.5085V14.7143ZM40.5085 15.3571H41.1514V16H40.5085V15.3571ZM37.9371 14.0714H38.5799V14.7143H37.9371V14.0714ZM41.1514 14.0714H41.7942V14.7143H41.1514V14.0714ZM43.7178 14.7143H44.3606V15.3571H43.7178V14.7143ZM44.3606 14.7143H45.0035V15.3571H44.3606V14.7143ZM44.3606 15.3571H45.0035V16H44.3606V15.3571ZM43.7178 15.3571H44.3606V16H43.7178V15.3571Z" fill="#CFE2FF"/>
</svg>
