<svg width="50" height="16" viewBox="0 0 50 16" fill="none" xmlns="http://www.w3.org/2000/svg">
<path d="M3.35234 14.5952C2.44014 14.5952 1.66097 14.2683 1.01482 13.6146C0.368681 12.9609 0.0304067 12.1703 0 11.2429C0 11.106 0.00760167 10.9692 0.022805 10.8324C0.0380084 10.6956 0.0608134 10.5587 0.0912201 10.4219L2.00684 2.75941C2.21969 1.93843 2.65298 1.27328 3.30673 0.763968C3.96047 0.254656 4.70544 0 5.54162 0H14.4356C15.2718 0 16.0167 0.254656 16.6705 0.763968C17.3242 1.27328 17.7575 1.93843 17.9704 2.75941L19.886 10.4219C19.9164 10.5587 19.943 10.6994 19.9658 10.8438C19.9886 10.9882 20 11.1288 20 11.2657C20 12.1931 19.6693 12.9799 19.008 13.626C18.3466 14.2721 17.5523 14.5952 16.6249 14.5952C15.9863 14.5952 15.3934 14.428 14.8461 14.0935C14.2987 13.759 13.8883 13.3029 13.6146 12.7252L12.9761 11.4025C12.9 11.2505 12.786 11.1364 12.634 11.0604C12.4819 10.9844 12.3223 10.9464 12.1551 10.9464H7.82212C7.65488 10.9464 7.49525 10.9844 7.34322 11.0604C7.19118 11.1364 7.07716 11.2505 7.00114 11.4025L6.3626 12.7252C6.08894 13.3029 5.67845 13.759 5.13113 14.0935C4.58381 14.428 3.99088 14.5952 3.35234 14.5952ZM3.42075 12.7708C3.70962 12.7708 3.97187 12.6948 4.20753 12.5428C4.44318 12.3907 4.62182 12.1855 4.74344 11.927L5.38198 10.6271C5.61003 10.1558 5.94451 9.78715 6.3854 9.52109C6.8263 9.25504 7.30521 9.12201 7.82212 9.12201H12.1551C12.672 9.12201 13.1509 9.25884 13.5918 9.5325C14.0327 9.80616 14.3748 10.171 14.618 10.6271L15.2566 11.927C15.3782 12.1855 15.5568 12.3907 15.7925 12.5428C16.0281 12.6948 16.2904 12.7708 16.5792 12.7708C17.0049 12.7708 17.3698 12.6302 17.6739 12.3489C17.978 12.0677 18.1376 11.7142 18.1528 11.2885C18.1528 11.3037 18.1376 11.1593 18.1072 10.8552L16.1916 3.21551C16.0851 2.80502 15.8723 2.47054 15.553 2.21209C15.2338 1.95363 14.8613 1.8244 14.4356 1.8244H5.54162C5.11593 1.8244 4.73964 1.95363 4.41277 2.21209C4.0859 2.47054 3.87685 2.80502 3.78563 3.21551L1.87001 10.8552C1.8396 10.9464 1.8244 11.0832 1.8244 11.2657C1.8244 11.6914 1.98024 12.0487 2.2919 12.3375C2.60357 12.6264 2.97986 12.7708 3.42075 12.7708ZM11.3569 6.3854C11.6154 6.3854 11.832 6.29799 12.0068 6.12315C12.1817 5.94831 12.2691 5.73166 12.2691 5.4732C12.2691 5.21475 12.1817 4.9981 12.0068 4.82326C11.832 4.64842 11.6154 4.561 11.3569 4.561C11.0984 4.561 10.8818 4.64842 10.707 4.82326C10.5321 4.9981 10.4447 5.21475 10.4447 5.4732C10.4447 5.73166 10.5321 5.94831 10.707 6.12315C10.8818 6.29799 11.0984 6.3854 11.3569 6.3854ZM13.1813 4.561C13.4398 4.561 13.6564 4.47358 13.8312 4.29875C14.0061 4.12391 14.0935 3.90726 14.0935 3.6488C14.0935 3.39035 14.0061 3.1737 13.8312 2.99886C13.6564 2.82402 13.4398 2.7366 13.1813 2.7366C12.9228 2.7366 12.7062 2.82402 12.5314 2.99886C12.3565 3.1737 12.2691 3.39035 12.2691 3.6488C12.2691 3.90726 12.3565 4.12391 12.5314 4.29875C12.7062 4.47358 12.9228 4.561 13.1813 4.561ZM13.1813 8.20981C13.4398 8.20981 13.6564 8.12239 13.8312 7.94755C14.0061 7.77271 14.0935 7.55606 14.0935 7.29761C14.0935 7.03915 14.0061 6.8225 13.8312 6.64766C13.6564 6.47282 13.4398 6.3854 13.1813 6.3854C12.9228 6.3854 12.7062 6.47282 12.5314 6.64766C12.3565 6.8225 12.2691 7.03915 12.2691 7.29761C12.2691 7.55606 12.3565 7.77271 12.5314 7.94755C12.7062 8.12239 12.9228 8.20981 13.1813 8.20981ZM15.0057 6.3854C15.2642 6.3854 15.4808 6.29799 15.6556 6.12315C15.8305 5.94831 15.9179 5.73166 15.9179 5.4732C15.9179 5.21475 15.8305 4.9981 15.6556 4.82326C15.4808 4.64842 15.2642 4.561 15.0057 4.561C14.7472 4.561 14.5306 4.64842 14.3558 4.82326C14.1809 4.9981 14.0935 5.21475 14.0935 5.4732C14.0935 5.73166 14.1809 5.94831 14.3558 6.12315C14.5306 6.29799 14.7472 6.3854 15.0057 6.3854ZM6.79589 7.75371C6.99354 7.75371 7.15697 7.68909 7.2862 7.55986C7.41543 7.43063 7.48005 7.2672 7.48005 7.06956V6.15735H8.39225C8.58989 6.15735 8.75333 6.09274 8.88255 5.96351C9.01178 5.83428 9.0764 5.67085 9.0764 5.4732C9.0764 5.27556 9.01178 5.11212 8.88255 4.9829C8.75333 4.85367 8.58989 4.78905 8.39225 4.78905H7.48005V3.87685C7.48005 3.67921 7.41543 3.51577 7.2862 3.38654C7.15697 3.25732 6.99354 3.1927 6.79589 3.1927C6.59825 3.1927 6.43482 3.25732 6.30559 3.38654C6.17636 3.51577 6.11174 3.67921 6.11174 3.87685V4.78905H5.19954C5.0019 4.78905 4.83846 4.85367 4.70924 4.9829C4.58001 5.11212 4.51539 5.27556 4.51539 5.4732C4.51539 5.67085 4.58001 5.83428 4.70924 5.96351C4.83846 6.09274 5.0019 6.15735 5.19954 6.15735H6.11174V7.06956C6.11174 7.2672 6.17636 7.43063 6.30559 7.55986C6.43482 7.68909 6.59825 7.75371 6.79589 7.75371Z" fill="#1B77FF"/>
<path d="M23.2857 0.571429H23.9286V1.21429H23.2857V0.571429ZM22.6429 0.571429H23.2857V1.21429H22.6429V0.571429ZM22.6429 1.21429H23.2857V1.85714H22.6429V1.21429ZM23.2857 1.21429H23.9286V1.85714H23.2857V1.21429ZM23.9286 1.21429H24.5714V1.85714H23.9286V1.21429ZM23.9286 0.571429H24.5714V1.21429H23.9286V0.571429ZM24.5714 0.571429H25.2143V1.21429H24.5714V0.571429ZM25.2143 0.571429H25.8571V1.21429H25.2143V0.571429ZM25.2143 1.21429H25.8571V1.85714H25.2143V1.21429ZM24.5714 1.21429H25.2143V1.85714H24.5714V1.21429ZM25.2143 1.85714H25.8571V2.5H25.2143V1.85714ZM25.8571 1.21429H26.5V1.85714H25.8571V1.21429ZM25.8571 1.85714H26.5V2.5H25.8571V1.85714ZM25.8571 5.07143H26.5V5.71429H25.8571V5.07143ZM25.8571 5.71429H26.5V6.35714H25.8571V5.71429ZM25.2143 5.71429H25.8571V6.35714H25.2143V5.71429ZM25.2143 5.07143H25.8571V5.71429H25.2143V5.07143ZM24.5714 5.71429H25.2143V6.35714H24.5714V5.71429ZM25.2143 6.35714H25.8571V7H25.2143V6.35714ZM24.5714 6.35714H25.2143V7H24.5714V6.35714ZM23.9286 6.35714H24.5714V7H23.9286V6.35714ZM23.9286 5.71429H24.5714V6.35714H23.9286V5.71429ZM23.2857 6.35714H23.9286V7H23.2857V6.35714ZM22.6429 6.35714H23.2857V7H22.6429V6.35714ZM22.6429 5.71429H23.2857V6.35714H22.6429V5.71429ZM23.2857 5.71429H23.9286V6.35714H23.2857V5.71429ZM23.2857 5.07143H23.9286V5.71429H23.2857V5.07143ZM22.6429 5.07143H23.2857V5.71429H22.6429V5.07143ZM22 5.71429H22.6429V6.35714H22V5.71429ZM22 5.07143H22.6429V5.71429H22V5.07143ZM22 4.42857H22.6429V5.07143H22V4.42857ZM22 3.78571H22.6429V4.42857H22V3.78571ZM22 3.14286H22.6429V3.78571H22V3.14286ZM22 2.5H22.6429V3.14286H22V2.5ZM22 1.85714H22.6429V2.5H22V1.85714ZM22.6429 1.85714H23.2857V2.5H22.6429V1.85714ZM22 1.21429H22.6429V1.85714H22V1.21429ZM23.2857 1.85714H23.9286V2.5H23.2857V1.85714ZM22.6429 2.5H23.2857V3.14286H22.6429V2.5ZM22.6429 3.14286H23.2857V3.78571H22.6429V3.14286ZM22.6429 3.78571H23.2857V4.42857H22.6429V3.78571ZM22.6429 4.42857H23.2857V5.07143H22.6429V4.42857ZM25.8571 4.42857H26.5V5.07143H25.8571V4.42857ZM25.2143 4.42857H25.8571V5.07143H25.2143V4.42857ZM25.2143 3.78571H25.8571V4.42857H25.2143V3.78571ZM25.8571 3.78571H26.5V4.42857H25.8571V3.78571ZM25.8571 3.14286H26.5V3.78571H25.8571V3.14286ZM25.2143 3.14286H25.8571V3.78571H25.2143V3.14286ZM24.5714 3.14286H25.2143V3.78571H24.5714V3.14286ZM23.9286 3.14286H24.5714V3.78571H23.9286V3.14286ZM23.9286 3.78571H24.5714V4.42857H23.9286V3.78571ZM24.5714 3.78571H25.2143V4.42857H24.5714V3.78571ZM23.9286 14.3571H24.5714V15H23.9286V14.3571ZM23.9286 13.7143H24.5714V14.3571H23.9286V13.7143ZM23.9286 13.0714H24.5714V13.7143H23.9286V13.0714ZM23.2857 13.7143H23.9286V14.3571H23.2857V13.7143ZM23.2857 13.0714H23.9286V13.7143H23.2857V13.0714ZM23.2857 12.4286H23.9286V13.0714H23.2857V12.4286ZM22.6429 13.0714H23.2857V13.7143H22.6429V13.0714ZM22.6429 12.4286H23.2857V13.0714H22.6429V12.4286ZM24.5714 13.0714H25.2143V13.7143H24.5714V13.0714ZM24.5714 13.7143H25.2143V14.3571H24.5714V13.7143ZM24.5714 12.4286H25.2143V13.0714H24.5714V12.4286ZM25.2143 12.4286H25.8571V13.0714H25.2143V12.4286ZM25.2143 13.0714H25.8571V13.7143H25.2143V13.0714ZM25.8571 12.4286H26.5V13.0714H25.8571V12.4286ZM22 12.4286H22.6429V13.0714H22V12.4286ZM25.2143 8.57143H25.8571V9.21429H25.2143V8.57143ZM25.8571 8.57143H26.5V9.21429H25.8571V8.57143ZM25.8571 9.21429H26.5V9.85714H25.8571V9.21429ZM25.8571 9.85714H26.5V10.5H25.8571V9.85714ZM25.8571 10.5H26.5V11.1429H25.8571V10.5ZM25.8571 11.1429H26.5V11.7857H25.8571V11.1429ZM25.2143 11.1429H25.8571V11.7857H25.2143V11.1429ZM25.2143 11.7857H25.8571V12.4286H25.2143V11.7857ZM25.2143 10.5H25.8571V11.1429H25.2143V10.5ZM25.2143 9.85714H25.8571V10.5H25.2143V9.85714ZM25.2143 9.21429H25.8571V9.85714H25.2143V9.21429ZM25.8571 11.7857H26.5V12.4286H25.8571V11.7857ZM22.6429 11.7857H23.2857V12.4286H22.6429V11.7857ZM22 11.7857H22.6429V12.4286H22V11.7857ZM22 11.1429H22.6429V11.7857H22V11.1429ZM22.6429 11.1429H23.2857V11.7857H22.6429V11.1429ZM22.6429 10.5H23.2857V11.1429H22.6429V10.5ZM22 10.5H22.6429V11.1429H22V10.5ZM22 9.85714H22.6429V10.5H22V9.85714ZM22.6429 9.85714H23.2857V10.5H22.6429V9.85714ZM22 8.57143H22.6429V9.21429H22V8.57143ZM22.6429 8.57143H23.2857V9.21429H22.6429V8.57143ZM22.6429 9.21429H23.2857V9.85714H22.6429V9.21429ZM22 9.21429H22.6429V9.85714H22V9.21429Z" fill="#1B77FF"/>
<path d="M31.0017 7H30.3588V6.35714H31.0017V7ZM31.0017 6.35714H30.3588V5.71429H31.0017V6.35714ZM30.3588 6.35714H29.716V5.71429H30.3588V6.35714ZM29.716 7H29.0731V6.35714H29.716V7ZM29.0731 7H28.4302V6.35714H29.0731V7ZM28.4302 7H27.7874V6.35714H28.4302V7ZM28.4302 6.35714H27.7874V5.71429H28.4302V6.35714ZM29.0731 6.35714H28.4302V5.71429H29.0731V6.35714ZM27.7874 6.35714H27.1445V5.71429H27.7874V6.35714ZM27.7874 5.71429H27.1445V5.07143H27.7874V5.71429ZM27.7874 3.14286H27.1445V2.5H27.7874V3.14286ZM28.4302 3.14286H27.7874V2.5H28.4302V3.14286ZM28.4302 5.71429H27.7874V5.07143H28.4302V5.71429ZM29.0731 3.14286H28.4302V2.5H29.0731V3.14286ZM28.4302 2.5H27.7874V1.85714H28.4302V2.5ZM29.0731 2.5H28.4302V1.85714H29.0731V2.5ZM29.716 2.5H29.0731V1.85714H29.716V2.5ZM30.3588 2.5H29.716V1.85714H30.3588V2.5ZM31.0017 2.5H30.3588V1.85714H31.0017V2.5ZM31.0017 3.14286H30.3588V2.5H31.0017V3.14286ZM30.3588 3.14286H29.716V2.5H30.3588V3.14286ZM31.0017 3.78571H30.3588V3.14286H31.0017V3.78571ZM31.6445 3.14286H31.0017V2.5H31.6445V3.14286ZM31.6445 3.78571H31.0017V3.14286H31.6445V3.78571ZM31.6445 4.42857H31.0017V3.78571H31.6445V4.42857ZM31.6445 5.07143H31.0017V4.42857H31.6445V5.07143ZM31.6445 5.71429H31.0017V5.07143H31.6445V5.71429ZM31.6445 6.35714H31.0017V5.71429H31.6445V6.35714ZM31.0017 5.71429H30.3588V5.07143H31.0017V5.71429ZM31.0017 5.07143H30.3588V4.42857H31.0017V5.07143ZM31.0017 4.42857H30.3588V3.78571H31.0017V4.42857ZM29.716 3.14286H29.0731V2.5H29.716V3.14286ZM29.716 6.35714H29.0731V5.71429H29.716V6.35714ZM31.0017 6.35714H31.6445V7H31.0017V6.35714ZM29.716 3.78571H30.3588V4.42857H29.716V3.78571ZM29.0731 3.78571H29.716V4.42857H29.0731V3.78571ZM28.4302 3.78571H29.0731V4.42857H28.4302V3.78571ZM27.7874 3.78571H28.4302V4.42857H27.7874V3.78571ZM27.1445 4.42857H27.7874V5.07143H27.1445V4.42857ZM27.7874 4.42857H28.4302V5.07143H27.7874V4.42857ZM29.716 4.42857H30.3588V5.07143H29.716V4.42857ZM29.0731 4.42857H29.716V5.07143H29.0731V4.42857ZM28.4302 4.42857H29.0731V5.07143H28.4302V4.42857ZM32.2891 2.5H32.9319V3.14286H32.2891V2.5ZM32.2891 1.85714H32.9319V2.5H32.2891V1.85714ZM32.9319 1.85714H33.5748V2.5H32.9319V1.85714ZM32.9319 2.5H33.5748V3.14286H32.9319V2.5ZM32.9319 3.14286H33.5748V3.78571H32.9319V3.14286ZM32.9319 3.78571H33.5748V4.42857H32.9319V3.78571ZM32.9319 4.42857H33.5748V5.07143H32.9319V4.42857ZM32.2891 4.42857H32.9319V5.07143H32.2891V4.42857ZM32.2891 3.78571H32.9319V4.42857H32.2891V3.78571ZM32.2891 3.14286H32.9319V3.78571H32.2891V3.14286ZM32.2891 5.07143H32.9319V5.71429H32.2891V5.07143ZM32.9319 5.07143H33.5748V5.71429H32.9319V5.07143ZM32.9319 5.71429H33.5748V6.35714H32.9319V5.71429ZM32.9319 6.35714H33.5748V7H32.9319V6.35714ZM32.2891 6.35714H32.9319V7H32.2891V6.35714ZM32.2891 5.71429H32.9319V6.35714H32.2891V5.71429ZM34.8605 6.35714H35.5033V7H34.8605V6.35714ZM35.5033 6.35714H36.1462V7H35.5033V6.35714ZM35.5033 5.71429H36.1462V6.35714H35.5033V5.71429ZM35.5033 5.07143H36.1462V5.71429H35.5033V5.07143ZM35.5033 4.42857H36.1462V5.07143H35.5033V4.42857ZM35.5033 3.78571H36.1462V4.42857H35.5033V3.78571ZM35.5033 3.14286H36.1462V3.78571H35.5033V3.14286ZM35.5033 2.5H36.1462V3.14286H35.5033V2.5ZM34.8605 3.78571H35.5033V4.42857H34.8605V3.78571ZM34.8605 4.42857H35.5033V5.07143H34.8605V4.42857ZM34.8605 5.07143H35.5033V5.71429H34.8605V5.07143ZM34.8605 5.71429H35.5033V6.35714H34.8605V5.71429ZM34.8605 3.14286H35.5033V3.78571H34.8605V3.14286ZM33.5748 2.5H34.2176V3.14286H33.5748V2.5ZM34.2176 2.5H34.8605V3.14286H34.2176V2.5ZM34.8605 1.85714H35.5033V2.5H34.8605V1.85714ZM34.8605 2.5H35.5033V3.14286H34.8605V2.5ZM34.2176 1.85714H34.8605V2.5H34.2176V1.85714ZM37.4319 6.35714H38.0748V7H37.4319V6.35714ZM38.0748 6.35714H38.7176V7H38.0748V6.35714ZM38.0748 5.71429H38.7176V6.35714H38.0748V5.71429ZM38.0748 5.07143H38.7176V5.71429H38.0748V5.07143ZM38.0748 4.42857H38.7176V5.07143H38.0748V4.42857ZM38.0748 3.78571H38.7176V4.42857H38.0748V3.78571ZM38.0748 3.14286H38.7176V3.78571H38.0748V3.14286ZM38.0748 2.5H38.7176V3.14286H38.0748V2.5ZM37.4319 3.78571H38.0748V4.42857H37.4319V3.78571ZM37.4319 4.42857H38.0748V5.07143H37.4319V4.42857ZM37.4319 5.07143H38.0748V5.71429H37.4319V5.07143ZM37.4319 5.71429H38.0748V6.35714H37.4319V5.71429ZM37.4319 3.14286H38.0748V3.78571H37.4319V3.14286ZM36.1462 2.5H36.7891V3.14286H36.1462V2.5ZM36.7891 2.5H37.4319V3.14286H36.7891V2.5ZM37.4319 1.85714H38.0748V2.5H37.4319V1.85714ZM37.4319 2.5H38.0748V3.14286H37.4319V2.5ZM36.7891 1.85714H37.4319V2.5H36.7891V1.85714ZM40.6412 1.85714H41.284V2.5H40.6412V1.85714ZM39.9983 1.85714H40.6412V2.5H39.9983V1.85714ZM39.9983 2.5H40.6412V3.14286H39.9983V2.5ZM40.6412 2.5H41.284V3.14286H40.6412V2.5ZM41.284 1.85714H41.9269V2.5H41.284V1.85714ZM41.9269 1.85714H42.5698V2.5H41.9269V1.85714ZM42.5698 1.85714H43.2126V2.5H42.5698V1.85714ZM42.5698 2.5H43.2126V3.14286H42.5698V2.5ZM41.9269 2.5H42.5698V3.14286H41.9269V2.5ZM43.2126 2.5H43.8555V3.14286H43.2126V2.5ZM43.2126 3.14286H43.8555V3.78571H43.2126V3.14286ZM43.2126 5.71429H43.8555V6.35714H43.2126V5.71429ZM42.5698 5.71429H43.2126V6.35714H42.5698V5.71429ZM42.5698 3.14286H43.2126V3.78571H42.5698V3.14286ZM41.9269 5.71429H42.5698V6.35714H41.9269V5.71429ZM42.5698 6.35714H43.2126V7H42.5698V6.35714ZM41.9269 6.35714H42.5698V7H41.9269V6.35714ZM41.284 6.35714H41.9269V7H41.284V6.35714ZM40.6412 6.35714H41.284V7H40.6412V6.35714ZM39.9983 6.35714H40.6412V7H39.9983V6.35714ZM39.9983 5.71429H40.6412V6.35714H39.9983V5.71429ZM40.6412 5.71429H41.284V6.35714H40.6412V5.71429ZM39.9983 5.07143H40.6412V5.71429H39.9983V5.07143ZM39.3555 5.71429H39.9983V6.35714H39.3555V5.71429ZM39.3555 5.07143H39.9983V5.71429H39.3555V5.07143ZM39.3555 4.42857H39.9983V5.07143H39.3555V4.42857ZM39.3555 3.78571H39.9983V4.42857H39.3555V3.78571ZM39.3555 3.14286H39.9983V3.78571H39.3555V3.14286ZM39.3555 2.5H39.9983V3.14286H39.3555V2.5ZM39.9983 3.14286H40.6412V3.78571H39.9983V3.14286ZM39.9983 3.78571H40.6412V4.42857H39.9983V3.78571ZM39.9983 4.42857H40.6412V5.07143H39.9983V4.42857ZM41.284 5.71429H41.9269V6.35714H41.284V5.71429ZM41.284 2.5H41.9269V3.14286H41.284V2.5ZM42.5698 3.78571H43.2126V4.42857H42.5698V3.78571ZM43.2126 3.78571H43.8555V4.42857H43.2126V3.78571ZM40.6412 4.42857H41.284V5.07143H40.6412V4.42857ZM41.284 4.42857H41.9269V5.07143H41.284V4.42857ZM41.9269 4.42857H42.5698V5.07143H41.9269V4.42857ZM42.5698 4.42857H43.2126V5.07143H42.5698V4.42857ZM43.2126 4.42857H43.8555V5.07143H43.2126V4.42857ZM41.9269 3.78571H42.5698V4.42857H41.9269V3.78571ZM41.284 3.78571H41.9269V4.42857H41.284V3.78571ZM40.6412 3.78571H41.284V4.42857H40.6412V3.78571ZM44.5 2.5H45.1429V3.14286H44.5V2.5ZM45.1429 3.14286H45.7857V3.78571H45.1429V3.14286ZM44.5 3.14286H45.1429V3.78571H44.5V3.14286ZM44.5 3.78571H45.1429V4.42857H44.5V3.78571ZM45.1429 3.78571H45.7857V4.42857H45.1429V3.78571ZM45.1429 4.42857H45.7857V5.07143H45.1429V4.42857ZM45.7857 4.42857H46.4286V5.07143H45.7857V4.42857ZM46.4286 4.42857H47.0714V5.07143H46.4286V4.42857ZM47.0714 3.78571H47.7143V4.42857H47.0714V3.78571ZM46.4286 3.78571H47.0714V4.42857H46.4286V3.78571ZM45.7857 3.78571H46.4286V4.42857H45.7857V3.78571ZM47.0714 4.42857H47.7143V5.07143H47.0714V4.42857ZM47.7143 4.42857H48.3571V5.07143H47.7143V4.42857ZM47.7143 5.07143H48.3571V5.71429H47.7143V5.07143ZM47.0714 5.07143H47.7143V5.71429H47.0714V5.07143ZM47.0714 5.71429H47.7143V6.35714H47.0714V5.71429ZM47.7143 5.71429H48.3571V6.35714H47.7143V5.71429ZM47.0714 6.35714H47.7143V7H47.0714V6.35714ZM46.4286 5.71429H47.0714V6.35714H46.4286V5.71429ZM45.7857 5.71429H46.4286V6.35714H45.7857V5.71429ZM45.1429 5.71429H45.7857V6.35714H45.1429V5.71429ZM44.5 5.71429H45.1429V6.35714H44.5V5.71429ZM45.1429 6.35714H45.7857V7H45.1429V6.35714ZM45.7857 6.35714H46.4286V7H45.7857V6.35714ZM46.4286 6.35714H47.0714V7H46.4286V6.35714ZM47.7143 2.5H48.3571V3.14286H47.7143V2.5ZM47.0714 2.5H47.7143V3.14286H47.0714V2.5ZM47.0714 1.85714H47.7143V2.5H47.0714V1.85714ZM46.4286 1.85714H47.0714V2.5H46.4286V1.85714ZM45.7857 1.85714H46.4286V2.5H45.7857V1.85714ZM45.1429 1.85714H45.7857V2.5H45.1429V1.85714ZM45.1429 2.5H45.7857V3.14286H45.1429V2.5ZM45.7857 2.5H46.4286V3.14286H45.7857V2.5ZM46.4286 2.5H47.0714V3.14286H46.4286V2.5ZM27.1445 8.57143H28.4302V9.85714H27.1445V8.57143ZM27.1445 10.5H28.4302V15H27.1445V10.5ZM30.3638 9.85714H31.0067V10.5H30.3638V9.85714ZM29.721 9.85714H30.3638V10.5H29.721V9.85714ZM29.721 10.5H30.3638V11.1429H29.721V10.5ZM30.3638 10.5H31.0067V11.1429H30.3638V10.5ZM31.0067 9.85714H31.6496V10.5H31.0067V9.85714ZM31.6496 9.85714H32.2924V10.5H31.6496V9.85714ZM32.2924 9.85714H32.9353V10.5H32.2924V9.85714ZM32.2924 10.5H32.9353V11.1429H32.2924V10.5ZM31.6496 10.5H32.2924V11.1429H31.6496V10.5ZM32.9353 10.5H33.5781V11.1429H32.9353V10.5ZM32.9353 11.1429H33.5781V11.7857H32.9353V11.1429ZM32.9353 13.7143H33.5781V14.3571H32.9353V13.7143ZM32.2924 13.7143H32.9353V14.3571H32.2924V13.7143ZM32.2924 11.1429H32.9353V11.7857H32.2924V11.1429ZM31.6496 13.7143H32.2924V14.3571H31.6496V13.7143ZM32.2924 14.3571H32.9353V15H32.2924V14.3571ZM31.6496 14.3571H32.2924V15H31.6496V14.3571ZM31.0067 14.3571H31.6496V15H31.0067V14.3571ZM30.3638 14.3571H31.0067V15H30.3638V14.3571ZM29.721 14.3571H30.3638V15H29.721V14.3571ZM29.721 13.7143H30.3638V14.3571H29.721V13.7143ZM30.3638 13.7143H31.0067V14.3571H30.3638V13.7143ZM29.721 13.0714H30.3638V13.7143H29.721V13.0714ZM29.0781 13.7143H29.721V14.3571H29.0781V13.7143ZM29.0781 13.0714H29.721V13.7143H29.0781V13.0714ZM29.0781 12.4286H29.721V13.0714H29.0781V12.4286ZM29.0781 11.7857H29.721V12.4286H29.0781V11.7857ZM29.0781 11.1429H29.721V11.7857H29.0781V11.1429ZM29.0781 10.5H29.721V11.1429H29.0781V10.5ZM29.721 11.1429H30.3638V11.7857H29.721V11.1429ZM29.721 11.7857H30.3638V12.4286H29.721V11.7857ZM29.721 12.4286H30.3638V13.0714H29.721V12.4286ZM31.0067 13.7143H31.6496V14.3571H31.0067V13.7143ZM31.0067 10.5H31.6496V11.1429H31.0067V10.5ZM32.2924 11.7857H32.9353V12.4286H32.2924V11.7857ZM32.9353 11.7857H33.5781V12.4286H32.9353V11.7857ZM30.3638 12.4286H31.0067V13.0714H30.3638V12.4286ZM31.0067 12.4286H31.6496V13.0714H31.0067V12.4286ZM31.6496 12.4286H32.2924V13.0714H31.6496V12.4286ZM32.2924 12.4286H32.9353V13.0714H32.2924V12.4286ZM32.9353 12.4286H33.5781V13.0714H32.9353V12.4286ZM31.6496 11.7857H32.2924V12.4286H31.6496V11.7857ZM31.0067 11.7857H31.6496V12.4286H31.0067V11.7857ZM30.3638 11.7857H31.0067V12.4286H30.3638V11.7857ZM34.2227 9.85714H34.8655V10.5H34.2227V9.85714ZM34.2227 10.5H34.8655V11.1429H34.2227V10.5ZM34.2227 11.1429H34.8655V11.7857H34.2227V11.1429ZM34.2227 11.7857H34.8655V12.4286H34.2227V11.7857ZM34.2227 12.4286H34.8655V13.0714H34.2227V12.4286ZM34.2227 13.0714H34.8655V13.7143H34.2227V13.0714ZM34.8655 13.0714H35.5084V13.7143H34.8655V13.0714ZM34.8655 13.7143H35.5084V14.3571H34.8655V13.7143ZM35.5084 13.7143H36.1512V14.3571H35.5084V13.7143ZM35.5084 14.3571H36.1512V15H35.5084V14.3571ZM36.1512 13.7143H36.7941V14.3571H36.1512V13.7143ZM36.7941 13.0714H37.4369V13.7143H36.7941V13.0714ZM37.4369 11.1429H38.0798V11.7857H37.4369V11.1429ZM36.7941 9.85714H37.4369V10.5H36.7941V9.85714ZM37.4369 9.85714H38.0798V10.5H37.4369V9.85714ZM37.4369 10.5H38.0798V11.1429H37.4369V10.5ZM37.4369 11.7857H38.0798V12.4286H37.4369V11.7857ZM37.4369 12.4286H38.0798V13.0714H37.4369V12.4286ZM36.7941 12.4286H37.4369V13.0714H36.7941V12.4286ZM36.7941 11.7857H37.4369V12.4286H36.7941V11.7857ZM36.7941 11.1429H37.4369V11.7857H36.7941V11.1429ZM36.7941 10.5H37.4369V11.1429H36.7941V10.5ZM37.4369 13.0714H38.0798V13.7143H37.4369V13.0714ZM38.7227 13.7143H39.3655V14.3571H38.7227V13.7143ZM38.7227 14.3571H39.3655V15H38.7227V14.3571ZM39.3655 13.7143H40.0084V14.3571H39.3655V13.7143ZM39.3655 13.0714H40.0084V13.7143H39.3655V13.0714ZM40.0084 13.0714H40.6512V13.7143H40.0084V13.0714ZM40.0084 12.4286H40.6512V13.0714H40.0084V12.4286ZM40.0084 11.7857H40.6512V12.4286H40.0084V11.7857ZM40.0084 11.1429H40.6512V11.7857H40.0084V11.1429ZM40.0084 10.5H40.6512V11.1429H40.0084V10.5ZM40.0084 9.85714H40.6512V10.5H40.0084V9.85714ZM34.8655 10.5H35.5084V11.1429H34.8655V10.5ZM34.8655 11.1429H35.5084V11.7857H34.8655V11.1429ZM34.8655 11.7857H35.5084V12.4286H34.8655V11.7857ZM34.8655 12.4286H35.5084V13.0714H34.8655V12.4286ZM34.8655 9.85714H35.5084V10.5H34.8655V9.85714ZM39.3655 9.85714H40.0084V10.5H39.3655V9.85714ZM39.3655 10.5H40.0084V11.1429H39.3655V10.5ZM39.3655 11.1429H40.0084V11.7857H39.3655V11.1429ZM39.3655 11.7857H40.0084V12.4286H39.3655V11.7857ZM39.3655 12.4286H40.0084V13.0714H39.3655V12.4286ZM36.1512 14.3571H36.7941V15H36.1512V14.3571ZM36.7941 13.7143H37.4369V14.3571H36.7941V13.7143ZM37.4369 13.7143H38.0798V14.3571H37.4369V13.7143ZM38.0798 13.7143H38.7227V14.3571H38.0798V13.7143ZM38.0798 14.3571H38.7227V15H38.0798V14.3571ZM35.5084 13.0714H36.1512V13.7143H35.5084V13.0714ZM38.7227 13.0714H39.3655V13.7143H38.7227V13.0714Z" fill="#CFE2FF"/>
</svg>
